<?xml version="1.0" encoding="UTF-8" standalone="no"?>
<!-- Creator: CorelDRAW -->

<svg
   xmlns:dc="http://purl.org/dc/elements/1.1/"
   xmlns:cc="http://creativecommons.org/ns#"
   xmlns:rdf="http://www.w3.org/1999/02/22-rdf-syntax-ns#"
   xmlns:svg="http://www.w3.org/2000/svg"
   xmlns="http://www.w3.org/2000/svg"
   xmlns:sodipodi="http://sodipodi.sourceforge.net/DTD/sodipodi-0.dtd"
   xmlns:inkscape="http://www.inkscape.org/namespaces/inkscape"
   xml:space="preserve"
   x="-122.2443"
   y="122.2443"
   width="300"
   height="300"
   viewBox="-1358 0 3332.6707 3332.6707"
   id="svg2"
   version="1.1"
   inkscape:version="0.48.4 r9939"
   sodipodi:docname="嘉義縣徽..svg"><metadata
   id="metadata24"><rdf:RDF><cc:Work
       rdf:about=""><dc:format>image/svg+xml</dc:format><dc:type
         rdf:resource="http://purl.org/dc/dcmitype/StillImage" /></cc:Work></rdf:RDF></metadata><sodipodi:namedview
   pagecolor="#ffffff"
   bordercolor="#666666"
   borderopacity="1"
   objecttolerance="10"
   gridtolerance="10"
   guidetolerance="10"
   inkscape:pageopacity="0"
   inkscape:pageshadow="2"
   inkscape:window-width="1680"
   inkscape:window-height="998"
   id="namedview22"
   showgrid="false"
   inkscape:zoom="2.02"
   inkscape:cx="243.06931"
   inkscape:cy="122.2443"
   inkscape:window-x="-8"
   inkscape:window-y="-8"
   inkscape:window-maximized="1"
   inkscape:current-layer="svg2" />
 <defs
   id="defs4">
  <style
   type="text/css"
   id="style6">
   
    .fil4 {fill:#0093DD}
    .fil2 {fill:#1F1A17}
    .fil3 {fill:#84C326}
    .fil7 {fill:#C3C3C2}
    .fil6 {fill:#DFDFDE}
    .fil5 {fill:#E77919}
    .fil1 {fill:#FFFFFF}
    .fil0 {fill:#2B7D3C}
   
  </style>
 
  
  
  
  
  
  
  
  
  
  
  
  
  
 </defs>
 <ellipse
   d="M 1358,1358 C 1358,2108.0027 750.00269,2716 0,2716 -750.00269,2716 -1358,2108.0027 -1358,1358 -1358,607.99731 -750.00269,0 0,0 750.00269,0 1358,607.99731 1358,1358 z"
   style="fill:#006b29;fill-opacity:1"
   sodipodi:ry="1358"
   sodipodi:rx="1358"
   sodipodi:cy="1358"
   sodipodi:cx="0"
   ry="1358"
   rx="1358"
   cy="1358"
   cx="0"
   class="fil0"
   id="75969688"
   transform="matrix(1.2270511,0,0,1.2270511,308.33535,0)" /><ellipse
   d="M 1266,1358 C 1266,2057.1925 699.19249,2624 0,2624 -699.19249,2624 -1266,2057.1925 -1266,1358 -1266,658.80751 -699.19249,92 0,92 699.19249,92 1266,658.80751 1266,1358 z"
   style="fill:#ffffff"
   sodipodi:ry="1266"
   sodipodi:rx="1266"
   sodipodi:cy="1358"
   sodipodi:cx="0"
   ry="1266"
   rx="1266"
   cy="1358"
   cx="0"
   class="fil1"
   id="75969776"
   transform="matrix(1.2270511,0,0,1.2270511,308.33535,0)" /><path
   style="fill:#000000"
   inkscape:connector-curvature="0"
   d="m 1070.3341,1238.0946 c 4.9082,12.2705 15.9516,19.6328 41.7197,-4.9082 49.0821,-46.628 153.3814,-187.7389 310.4439,56.4443 143.565,222.0963 116.5699,790.2209 38.0386,953.4187 -56.4443,11.0435 -114.1157,22.0869 -184.0576,23.314 4.9082,-95.71 -2.4541,-287.13 -40.4927,-592.6657 -82.2124,-649.11 -296.94638,358.2989 -334.98497,543.5836 -90.80178,-19.6328 -190.19292,-51.5361 -295.71931,-90.8017 C 713.26221,1900.7022 716.94337,1081.032 767.25246,905.56371 786.88528,833.1677 783.20413,791.44796 772.16067,800.03732 465.39789,1018.4524 233.48523,1834.4414 180.72204,2022.1802 c -98.164092,-14.7246 -187.7388227,-12.2705 -277.313553,-9.8164 23.313971,-445.4195 -160.743697,-73.6231 -201.236377,18.4058 -184.05767,29.4492 -499.4098,263.816 -617.20671,341.1202 l 96.93704,-188.9659 c 0,0 801.264369,-1309.26352 890.839099,-766.9069 l 1.227051,-2.4541 c 0,0 6.135255,114.1157 46.62794,13.4975 39.26564,-99.3911 1081.03207,-2151.02055 949.73757,-188.9658 z"
   class="fil2"
   id="75969864" /><path
   style="fill:#65bb50;fill-opacity:1"
   inkscape:connector-curvature="0"
   d="m -983.74946,2513.0007 c 107.9805,-69.942 631.93132,-375.4777 1369.38903,-107.9805 824.57833,299.4004 1330.12343,62.5796 1424.60633,-325.1686 -84.6665,68.7149 -412.2892,337.4391 -1220.91585,33.1304 -808.62667,-303.0816 -1550.99259,68.7149 -1573.07951,400.0187 z"
   class="fil3"
   id="75970128" /><path
   style="fill:#0a51a1;fill-opacity:1"
   inkscape:connector-curvature="0"
   d="m -803.37295,2749.8215 c 154.60844,-30.6763 319.03329,-157.0625 1002.50075,50.3091 744.82002,224.5504 1166.9256,190.1929 1357.1185,-203.6905 -83.4395,68.7149 -409.835,126.3863 -1206.19121,-101.8452 -797.58322,-227.0045 -1099.43779,-56.4444 -1153.42804,255.2266 z"
   class="fil4"
   id="75970304" /><ellipse
   d="m -102,672 c 0,173.9697 -141.0303,315 -315,315 -173.9697,0 -315,-141.0303 -315,-315 0,-173.9697 141.0303,-315 315,-315 173.9697,0 315,141.0303 315,315 z"
   style="fill:#ff7f00;fill-opacity:1"
   sodipodi:ry="315"
   sodipodi:rx="315"
   sodipodi:cy="672"
   sodipodi:cx="-417"
   ry="315"
   rx="315"
   cy="672"
   cx="-417"
   class="fil5"
   id="75970392"
   transform="matrix(1.2270511,0,0,1.2270511,308.33535,0)" /><path
   style="fill:#dfdfde"
   inkscape:connector-curvature="0"
   d="m 169.67858,1915.4268 c 1.22705,-17.1787 4.9082,-49.0821 8.58935,-61.3526 7.36231,-24.541 18.40577,-60.1255 29.44923,-67.4878 1.22705,-1.227 15.95166,-13.4976 13.49756,1.2271 -2.4541,19.6328 0,17.1787 -7.3623,22.0869 0,0 -3.68116,25.768 -4.90821,28.2221 0,9.8165 -2.4541,19.6329 -4.9082,22.087 0,0 0,1.227 -1.22705,4.9082 -1.22706,8.5893 -3.68116,7.3623 -6.13526,8.5893 -4.9082,3.6812 -6.13526,61.3526 -12.27051,65.0337 -4.90821,3.6812 -11.04346,3.6812 -18.40577,2.4541 -4.9082,-1.227 2.4541,-31.9033 3.68116,-25.768 z"
   class="fil6"
   id="75970568" /><path
   style="fill:#c3c3c2"
   inkscape:connector-curvature="0"
   d="m 235.93934,1739.9585 c 2.4541,0 2.4541,-1.2271 3.68115,-1.2271 1.22705,0 2.4541,0 2.4541,0 1.22705,0 2.4541,0 3.68115,0 0,0 2.45411,0 2.45411,0 0,0 0,1.2271 0,2.4541 0,1.2271 0,2.4541 0,2.4541 0,1.2271 0,1.2271 0,2.4541 0,0 0,1.2271 0,1.2271 0,1.227 0,1.227 0,1.227 0,0 0,1.2271 0,1.2271 0,1.227 0,2.4541 0,2.4541 0,0 -1.22706,0 -1.22706,0 -1.22705,0 -1.22705,1.227 -2.4541,1.227 0,0 -1.22705,0 -1.22705,0 l -1.22705,0 c 0,0 -1.22705,0 -1.22705,0 l 0,0 c 0,0 -1.22705,0 -1.22705,0 l 0,0 c 0,0 -1.22705,0 -1.22705,0 l 0,0 c 0,0 -2.4541,0 -2.4541,0 l 0,0 c 0,0 -1.22706,0 -2.45411,0 -1.22705,0 -1.22705,-1.227 -1.22705,-2.4541 0,-1.227 1.22705,-2.4541 1.22705,-2.4541 0,0 0,-1.227 0,-1.227 0,-1.2271 0,-2.4541 0,-2.4541 l 0,0 c 0,0 0,-1.2271 0,-1.2271 0,0 1.22705,0 1.22705,0 1.22706,-1.227 1.22706,-1.227 1.22706,-3.6811 z"
   class="fil7"
   id="75970656" /><path
   style="fill:#dfdfde"
   inkscape:connector-curvature="0"
   d="m -143.21945,1358.3456 c -3.68116,0 -6.13526,2.4541 -8.58936,2.4541 -3.68116,2.4541 -8.58936,8.5893 -12.27051,9.8164 -1.22705,1.227 -1.22705,0 -2.45411,1.227 -1.22705,0 -1.22705,-1.227 -1.22705,1.2271 l 0,1.227 c 0,1.2271 -3.68115,-1.227 -3.68115,1.2271 l 0,1.227 c 0,0 0,1.2271 0,1.2271 -3.68115,1.227 -6.13526,3.6811 -6.13526,9.8164 0,1.227 0,4.9082 0,6.1352 0,2.4542 2.45411,7.3624 6.13526,7.3624 1.22705,0 7.36231,0 7.36231,1.227 0,0 8.58935,0 8.58935,0 0,0 2.45411,0 2.45411,0 3.68115,0 6.13525,-9.8164 7.3623,-12.2705 0,-1.2271 2.45411,-6.1353 3.68116,-7.3623 0,-1.2271 -1.22705,-3.6812 0,-3.6812 0,0 2.4541,-4.9082 3.68115,-4.9082 1.22705,0 3.68115,-6.1352 3.68115,-7.3623 0,-2.4541 1.22705,-6.1352 -1.22705,-6.1352 -2.4541,0 1.22705,-1.2271 -2.4541,-1.2271 0,0 -1.22705,0 -4.9082,-1.227 z"
   class="fil6"
   id="75970744" /><path
   style="fill:#c3c3c2"
   inkscape:connector-curvature="0"
   d="m -121.13253,1328.8963 3.68115,0 c 0,0 0,0 0,0 1.22705,0 2.4541,0 2.4541,0 1.22705,0 3.68115,0 6.13526,0 0,0 3.68115,0 4.9082,0 0,0 3.68115,0 3.68115,0 2.454106,0 4.908208,0 6.135259,0 0,0 1.227051,0 1.227051,0 0,0 0,3.6812 0,3.6812 0,0 1.227051,0 1.227051,0 0,0 1.227052,2.4541 1.227052,2.4541 0,0 0,2.4541 0,2.4541 0,1.2271 0,2.4541 0,2.4541 0,0 -1.227052,1.2271 -2.454103,1.2271 0,0 -1.227051,0 -2.454102,0 0,0 -1.227051,0 -2.454102,0 0,0 -1.227051,0 -2.454106,0 0,0 -2.4541,0 -2.4541,0 0,0 0,1.227 -1.22705,1.227 0,0 -2.4541,0 -2.4541,0 l 0,0 c 0,0 -2.4541,0 -2.4541,0 l 0,1.2271 c 0,0 -1.22706,0 -1.22706,0 l -1.22705,0 c 0,0 -1.22705,0 -1.22705,0 l -1.22705,0 c 0,0 -1.22705,0 -1.22705,0 0,0 -2.4541,0 -2.4541,0 l 0,0 c 0,0 -2.4541,0 -2.4541,0 -1.22705,-2.4541 -1.22705,-3.6812 -1.22705,-3.6812 0,-1.227 0,-2.4541 0,-3.6812 0,-1.227 0,-2.4541 0,-3.6811 0,0 1.22705,-1.2271 1.22705,-1.2271 l 0,-1.227 c 0,0 0,0 0,0 l 1.22705,0 c 1.22705,-1.2271 0,-1.2271 -2.4541,-1.2271 z"
   class="fil7"
   id="75970832" /><path
   style="fill:#dfdfde"
   inkscape:connector-curvature="0"
   d="m -667.17027,2087.2139 c 7.3623,-24.541 13.49756,-36.8115 19.63281,-63.8066 2.45411,-14.7246 39.26564,-78.5313 47.855,-88.3477 7.3623,-8.5894 41.71973,-46.628 34.35743,-7.3623 -4.90821,25.7681 -14.72462,33.1304 -25.76808,46.6279 -3.68115,3.6812 -14.72461,45.4009 -17.17871,47.855 -14.72461,7.3623 -19.63282,47.855 -28.22218,52.7632 -4.9082,2.4541 -13.49756,14.7246 -15.95166,14.7246 -1.22705,1.2271 -6.13526,6.1353 -8.58936,4.9082 -4.9082,0 -7.36231,-8.5893 -6.13525,-7.3623 z"
   class="fil6"
   id="75970920" /><path
   style="fill:#c3c3c2"
   inkscape:connector-curvature="0"
   d="m -546.91927,1882.2964 c 2.45411,-1.2271 3.68116,-2.4541 6.13526,-2.4541 1.22705,0 2.4541,0 3.68115,0 0,0 2.4541,0 3.68116,0 0,0 2.4541,0 2.4541,0 0,0 3.68115,0 3.68115,0 0,0 1.22705,1.227 1.22705,1.227 0,0 1.22705,1.2271 1.22705,1.2271 0,0 0,2.4541 0,2.4541 0,1.227 1.22705,1.227 1.22705,2.4541 0,1.227 0,1.227 0,2.4541 0,1.227 0,1.227 0,2.4541 0,1.227 0,2.4541 0,2.4541 0,0 -2.4541,1.227 -2.4541,1.227 0,0 -1.22705,0 -1.22705,0 l -1.22705,0 c 0,0 0,1.2271 0,1.2271 l -1.22705,0 c 0,0 -1.22705,0 -1.22705,0 l -1.22705,0 c 0,0 -1.22705,0 -1.22705,0 l -1.22706,0 c 0,0 -1.22705,0 -1.22705,0 l 0,0 c 0,0 -1.22705,0 -2.4541,0 -1.22705,0 -3.68115,0 -4.9082,0 0,0 -3.68116,0 -3.68116,0 0,0 0,-3.6812 0,-3.6812 0,-1.227 0,-2.4541 0,-2.4541 l 0,-1.227 c 0,0 0,-1.2271 0,-1.2271 0,0 0,-1.227 0,-2.4541 0,0 0,-2.4541 0,-3.6811 z"
   class="fil7"
   id="75971008" /><path
   style="fill:#dfdfde"
   inkscape:connector-curvature="0"
   d="m 1033.5226,825.80539 c -4.9083,2.4541 -2.4542,2.4541 -4.9083,4.9082 0,0 -1.227,3.68116 -1.227,3.68116 -1.2271,0 -3.6812,0 -4.9082,1.22705 0,1.22705 -1.2271,2.4541 -1.2271,2.4541 0,0 -2.4541,1.22705 -2.4541,1.22705 -1.227,1.22705 -1.227,3.68116 -1.227,3.68116 -2.4541,1.22705 -6.1353,1.22705 -7.3623,2.4541 0,0 -2.4541,6.13525 -2.4541,8.58936 0,2.4541 0,7.3623 0,11.04346 0,0 3.6811,4.9082 3.6811,4.9082 0,2.4541 2.4541,4.9082 2.4541,4.9082 1.2271,2.45411 22.087,2.45411 26.9952,2.45411 1.227,0 3.6811,0 4.9082,0 2.4541,0 1.227,-2.45411 1.227,-4.90821 0,-2.4541 2.4541,-6.13525 4.9082,-7.3623 1.2271,-1.22706 1.2271,-1.22706 2.4541,-3.68116 0,0 1.2271,-2.4541 1.2271,-2.4541 0,0 3.6811,0 3.6811,0 0,0 0,-13.49756 0,-14.72461 0,-1.22705 0,-8.58936 0,-9.81641 0,-1.22705 3.6812,-3.68116 2.4541,-3.68116 l -2.4541,0 c 0,0 0,-2.4541 0,-2.4541 0,0 -1.227,0 -2.4541,0 -3.6811,0 0,-1.22705 -3.6811,-1.22705 -4.9082,0 -4.9082,-2.4541 -9.8164,-2.4541 -2.4541,0 -7.3623,0 -9.8164,1.22705 z"
   class="fil6"
   id="75971096" />
</svg>